{
  "source": "C:\\Users\\Peter\\Desktop\\stuff\\MIUN\\quantitative_research\\video_compression\\videos\\BVI-HD\\BVI-HD_CDVL_videos\\ORIG\\TreeTrunk_1920x1080_50fps.mp4",
  "output": "C:\\Users\\Peter\\Desktop\\stuff\\MIUN\\quantitative_research\\video_compression\\compressed_videos\\BVI-HD\\hevc\\4\\TreeTrunk_1920x1080_50fps_hevc.mp4",
  "codec": "hevc",
  "ok": "Input #0, mov,mp4,m4a,3gp,3g2,mj2, from 'C:\\Users\\Peter\\Desktop\\stuff\\MIUN\\quantitative_research\\video_compression\\videos\\BVI-HD\\BVI-HD_CDVL_videos\\ORIG\\TreeTrunk_1920x1080_50fps.mp4':\n  Metadata:\n    major_brand     : isom\n    minor_version   : 512\n    compatible_brands: isomiso2avc1mp41\n    encoder         : Lavf54.28.101\n  Duration: 00:00:05.00, start: 0.000000, bitrate: 622415 kb/s\n  Stream #0:0[0x1](und): Video: h264 (High 4:4:4 Predictive) (avc1 / 0x31637661), yuv420p(progressive), 1920x1080, 622410 kb/s, 50 fps, 50 tbr, 50 tbn (default)\n    Metadata:\n      handler_name    : VideoHandler\n      vendor_id       : [0][0][0][0]\n[out#0/mp4 @ 000001ff531a7d80] Codec AVOption b:a (set bitrate (in bits/s)) has not been used for any stream. The most likely reason is either wrong type (e.g. a video option with no video streams) or that it is a private option of some decoder which was not actually used for any stream.\nStream mapping:\n  Stream #0:0 -> #0:0 (h264 (native) -> hevc (libx265))\nPress [q] to stop, [?] for help\n[libx265 @ 000001ff55320b40] Unknown option: \"aq-mode.\nx265 [info]: HEVC encoder version 4.1+190-8f11c33ac\nx265 [info]: build info [Windows][GCC 15.1.0][64 bit] 10bit\nx265 [info]: using cpu capabilities: MMX2 SSE2Fast LZCNT SSSE3 SSE4.2 AVX FMA3 BMI2 AVX2\nx265 [info]: Main 10 profile, Level-4.1 (Main tier)\nx265 [info]: Thread pool created using 12 threads\nx265 [info]: Slices                              : 1\nx265 [info]: frame threads / pool features       : 3 / wpp(17 rows)\nx265 [info]: Coding QT: max CU size, min CU size : 64 / 8\nx265 [info]: Residual QT: max TU size, max depth : 32 / 1 inter / 1 intra\nx265 [info]: ME / range / subpel / merge         : star / 57 / 3 / 3\nx265 [info]: Keyframe min / max / scenecut / bias  : 25 / 250 / 40 / 5.00 \nx265 [info]: Lookahead / bframes / badapt        : 25 / 4 / 2\nx265 [info]: b-pyramid / weightp / weightb       : 1 / 1 / 0\nx265 [info]: References / ref-limit  cu / depth  : 4 / on / on\nx265 [info]: AQ: mode / str / qg-size / cu-tree  : 2 / 1.0 / 32 / 1\nx265 [info]: Rate Control / qCompress            : ABR-4000 kbps / 0.60\nx265 [info]: VBV/HRD buffer / max-rate / init    : 4000 / 4000 / 0.750\nx265 [info]: tools: rect limit-modes rd=4 psy-rd=2.00 rdoq=2 psy-rdoq=1.00\nx265 [info]: tools: rskip mode=1 signhide tmvp strong-intra-smoothing lslices=4\nx265 [info]: tools: deblock sao dhdr10-info\nOutput #0, mp4, to 'C:\\Users\\Peter\\Desktop\\stuff\\MIUN\\quantitative_research\\video_compression\\compressed_videos\\BVI-HD\\hevc\\4\\TreeTrunk_1920x1080_50fps_hevc.mp4':\n  Metadata:\n    major_brand     : isom\n    minor_version   : 512\n    compatible_brands: isomiso2avc1mp41\n    encoder         : Lavf62.3.100\n  Stream #0:0(und): Video: hevc (hev1 / 0x31766568), yuv420p10le(tv, progressive), 1920x1080, q=2-31, 4000 kb/s, 50 fps, 12800 tbn (default)\n    Metadata:\n      encoder         : Lavc62.11.100 libx265\n      handler_name    : VideoHandler\n      vendor_id       : [0][0][0][0]\n    Side data:\n      cpb: bitrate max/min/avg: 4000000/0/4000000 buffer size: 4000000 vbv_delay: N/A\nframe=    0 fps=0.0 q=0.0 size=       0KiB time=N/A bitrate=N/A speed=N/A elapsed=0:00:00.51    \nframe=    0 fps=0.0 q=0.0 size=       0KiB time=N/A bitrate=N/A speed=N/A elapsed=0:00:01.05    \nframe=    0 fps=0.0 q=0.0 size=       0KiB time=N/A bitrate=N/A speed=N/A elapsed=0:00:01.62    \nframe=    0 fps=0.0 q=0.0 size=       0KiB time=N/A bitrate=N/A speed=N/A elapsed=0:00:02.22    \nframe=    0 fps=0.0 q=0.0 size=       0KiB time=N/A bitrate=N/A speed=N/A elapsed=0:00:02.73    \nframe=    0 fps=0.0 q=0.0 size=       0KiB time=N/A bitrate=N/A speed=N/A elapsed=0:00:03.28    \nframe=    0 fps=0.0 q=0.0 size=       0KiB time=N/A bitrate=N/A speed=N/A elapsed=0:00:03.81    \nframe=    0 fps=0.0 q=0.0 size=       0KiB time=N/A bitrate=N/A speed=N/A elapsed=0:00:04.33    \nframe=    0 fps=0.0 q=0.0 size=       0KiB time=N/A bitrate=N/A speed=N/A elapsed=0:00:04.86    \nframe=    0 fps=0.0 q=0.0 size=       0KiB time=N/A bitrate=N/A speed=N/A elapsed=0:00:05.38    \nframe=    0 fps=0.0 q=0.0 size=       0KiB time=N/A bitrate=N/A speed=N/A elapsed=0:00:05.90    \nframe=    0 fps=0.0 q=0.0 size=       0KiB time=N/A bitrate=N/A speed=N/A elapsed=0:00:06.43    \nframe=    0 fps=0.0 q=0.0 size=       0KiB time=N/A bitrate=N/A speed=N/A elapsed=0:00:06.99    \nframe=    0 fps=0.0 q=0.0 size=       0KiB time=N/A bitrate=N/A speed=N/A elapsed=0:00:07.52    \nframe=    0 fps=0.0 q=0.0 size=       0KiB time=N/A bitrate=N/A speed=N/A elapsed=0:00:08.05    \nframe=    0 fps=0.0 q=0.0 size=       0KiB time=N/A bitrate=N/A speed=N/A elapsed=0:00:08.59    \nframe=    0 fps=0.0 q=0.0 size=       0KiB time=N/A bitrate=N/A speed=N/A elapsed=0:00:09.13    \nframe=    1 fps=0.1 q=35.1 size=       0KiB time=-00:00:00.02 bitrate=N/A speed=N/A elapsed=0:00:09.66    \nframe=    2 fps=0.2 q=47.9 size=       0KiB time=00:00:00.00 bitrate=N/A speed=   0x elapsed=0:00:10.20    \nframe=    3 fps=0.3 q=50.0 size=       0KiB time=00:00:00.02 bitrate=  17.6kbits/s speed=0.00186x elapsed=0:00:10.74    \nframe=    3 fps=0.3 q=50.0 size=       0KiB time=00:00:00.02 bitrate=  17.6kbits/s speed=0.00177x elapsed=0:00:11.27    \nframe=    3 fps=0.3 q=50.0 size=       0KiB time=00:00:00.02 bitrate=  17.6kbits/s speed=0.00169x elapsed=0:00:11.84    \nframe=    4 fps=0.3 q=51.0 size=       0KiB time=00:00:00.04 bitrate=   8.8kbits/s speed=0.00323x elapsed=0:00:12.37    \nframe=    4 fps=0.3 q=51.0 size=       0KiB time=00:00:00.04 bitrate=   8.8kbits/s speed=0.00309x elapsed=0:00:12.96    \nframe=    4 fps=0.3 q=51.0 size=       0KiB time=00:00:00.04 bitrate=   8.8kbits/s speed=0.00295x elapsed=0:00:13.57    \nframe=    4 fps=0.3 q=51.0 size=       0KiB time=00:00:00.04 bitrate=   8.8kbits/s speed=0.00282x elapsed=0:00:14.19    \nframe=    5 fps=0.3 q=48.0 size=       0KiB time=00:00:00.04 bitrate=   8.8kbits/s speed=0.00271x elapsed=0:00:14.78    \nframe=    6 fps=0.4 q=47.9 size=       0KiB time=00:00:00.08 bitrate=   4.4kbits/s speed=0.00518x elapsed=0:00:15.44    \nframe=    6 fps=0.4 q=47.9 size=       0KiB time=00:00:00.08 bitrate=   4.4kbits/s speed=0.00499x elapsed=0:00:16.02    \nframe=    6 fps=0.4 q=47.9 size=       0KiB time=00:00:00.08 bitrate=   4.4kbits/s speed=0.00481x elapsed=0:00:16.61    \nframe=    6 fps=0.3 q=47.9 size=       0KiB time=00:00:00.08 bitrate=   4.4kbits/s speed=0.00465x elapsed=0:00:17.19    \nframe=    6 fps=0.3 q=47.9 size=       0KiB time=00:00:00.08 bitrate=   4.4kbits/s speed=0.0045x elapsed=0:00:17.79    \nframe=    6 fps=0.3 q=47.9 size=       0KiB time=00:00:00.08 bitrate=   4.4kbits/s speed=0.00435x elapsed=0:00:18.40    \nframe=    7 fps=0.4 q=36.5 size=       0KiB time=00:00:00.10 bitrate=   3.5kbits/s speed=0.00527x elapsed=0:00:18.96    \nframe=    7 fps=0.4 q=36.5 size=       0KiB time=00:00:00.10 bitrate=   3.5kbits/s speed=0.00512x elapsed=0:00:19.52    \nframe=    7 fps=0.3 q=36.5 size=       0KiB time=00:00:00.10 bitrate=   3.5kbits/s speed=0.00498x elapsed=0:00:20.08    \nframe=    8 fps=0.4 q=42.0 size=       0KiB time=00:00:00.12 bitrate=   2.9kbits/s speed=0.00581x elapsed=0:00:20.66    \nframe=    8 fps=0.4 q=42.0 size=       0KiB time=00:00:00.12 bitrate=   2.9kbits/s speed=0.00565x elapsed=0:00:21.23    \nframe=    8 fps=0.4 q=42.0 size=       0KiB time=00:00:00.12 bitrate=   2.9kbits/s speed=0.00551x elapsed=0:00:21.79    \nframe=    8 fps=0.4 q=42.0 size=       0KiB time=00:00:00.12 bitrate=   2.9kbits/s speed=0.00536x elapsed=0:00:22.40    \nframe=    9 fps=0.4 q=40.9 size=       0KiB time=00:00:00.14 bitrate=   2.5kbits/s speed=0.00609x elapsed=0:00:22.98    \nframe=    9 fps=0.4 q=40.9 size=       0KiB time=00:00:00.14 bitrate=   2.5kbits/s speed=0.00593x elapsed=0:00:23.59    \nframe=    9 fps=0.4 q=40.9 size=       0KiB time=00:00:00.14 bitrate=   2.5kbits/s speed=0.0058x elapsed=0:00:24.13    \nframe=    9 fps=0.4 q=40.9 size=       0KiB time=00:00:00.14 bitrate=   2.5kbits/s speed=0.00566x elapsed=0:00:24.72    \nframe=    9 fps=0.4 q=40.9 size=       0KiB time=00:00:00.14 bitrate=   2.5kbits/s speed=0.00554x elapsed=0:00:25.27    \nframe=    9 fps=0.3 q=40.9 size=       0KiB time=00:00:00.14 bitrate=   2.5kbits/s speed=0.00542x elapsed=0:00:25.81    \nframe=    9 fps=0.3 q=40.9 size=       0KiB time=00:00:00.14 bitrate=   2.5kbits/s speed=0.0053x elapsed=0:00:26.40    \nframe=    9 fps=0.3 q=40.9 size=       0KiB time=00:00:00.14 bitrate=   2.5kbits/s speed=0.00519x elapsed=0:00:26.96    \nframe=   10 fps=0.4 q=40.8 size=       0KiB time=00:00:00.16 bitrate=   2.2kbits/s speed=0.00581x elapsed=0:00:27.51    \nframe=   10 fps=0.4 q=40.8 size=       0KiB time=00:00:00.16 bitrate=   2.2kbits/s speed=0.0057x elapsed=0:00:28.08    \nframe=   10 fps=0.3 q=40.8 size=       0KiB time=00:00:00.16 bitrate=   2.2kbits/s speed=0.00558x elapsed=0:00:28.66    \nframe=   10 fps=0.3 q=40.8 size=       0KiB time=00:00:00.16 bitrate=   2.2kbits/s speed=0.00547x elapsed=0:00:29.24    \nframe=   11 fps=0.4 q=40.0 size=       0KiB time=00:00:00.18 bitrate=   2.0kbits/s speed=0.00605x elapsed=0:00:29.76    \nframe=   11 fps=0.4 q=40.0 size=       0KiB time=00:00:00.18 bitrate=   2.0kbits/s speed=0.00594x elapsed=0:00:30.31    \nframe=   11 fps=0.4 q=40.0 size=       0KiB time=00:00:00.18 bitrate=   2.0kbits/s speed=0.00582x elapsed=0:00:30.94    \nframe=   11 fps=0.3 q=40.0 size=       0KiB time=00:00:00.18 bitrate=   2.0kbits/s speed=0.00572x elapsed=0:00:31.49    \nframe=   11 fps=0.3 q=40.0 size=       0KiB time=00:00:00.18 bitrate=   2.0kbits/s speed=0.00562x elapsed=0:00:32.03    \nframe=   11 fps=0.3 q=40.0 size=       0KiB time=00:00:00.18 bitrate=   2.0kbits/s speed=0.00552x elapsed=0:00:32.61    \nframe=   11 fps=0.3 q=40.0 size=       0KiB time=00:00:00.18 bitrate=   2.0kbits/s speed=0.00542x elapsed=0:00:33.21    \nframe=   11 fps=0.3 q=40.0 size=       0KiB time=00:00:00.18 bitrate=   2.0kbits/s speed=0.00532x elapsed=0:00:33.82    \nframe=   11 fps=0.3 q=40.0 size=       0KiB time=00:00:00.18 bitrate=   2.0kbits/s speed=0.00523x elapsed=0:00:34.42    \nframe=   11 fps=0.3 q=40.0 size=       0KiB time=00:00:00.18 bitrate=   2.0kbits/s speed=0.00514x elapsed=0:00:35.04    \nframe=   11 fps=0.3 q=40.0 size=       0KiB time=00:00:00.18 bitrate=   2.0kbits/s speed=0.00506x elapsed=0:00:35.57    \nframe=   12 fps=0.3 q=34.6 size=       0KiB time=00:00:00.20 bitrate=   1.8kbits/s speed=0.00554x elapsed=0:00:36.13    \nframe=   12 fps=0.3 q=34.6 size=       0KiB time=00:00:00.20 bitrate=   1.8kbits/s speed=0.00544x elapsed=0:00:36.73    \nframe=   13 fps=0.3 q=38.9 size=       0KiB time=00:00:00.22 bitrate=   1.6kbits/s speed=0.0059x elapsed=0:00:37.30    \nframe=   14 fps=0.4 q=38.9 size=       0KiB time=00:00:00.24 bitrate=   1.5kbits/s speed=0.00633x elapsed=0:00:37.91    \nframe=   14 fps=0.4 q=38.9 size=       0KiB time=00:00:00.24 bitrate=   1.5kbits/s speed=0.00623x elapsed=0:00:38.49    \nframe=   14 fps=0.4 q=38.9 size=       0KiB time=00:00:00.24 bitrate=   1.5kbits/s speed=0.00614x elapsed=0:00:39.08    \nframe=   14 fps=0.4 q=38.9 size=       0KiB time=00:00:00.24 bitrate=   1.5kbits/s speed=0.00605x elapsed=0:00:39.67    \nframe=   14 fps=0.3 q=38.9 size=       0KiB time=00:00:00.24 bitrate=   1.5kbits/s speed=0.00597x elapsed=0:00:40.22    \nframe=   14 fps=0.3 q=38.9 size=       0KiB time=00:00:00.24 bitrate=   1.5kbits/s speed=0.00589x elapsed=0:00:40.75    \nframe=   15 fps=0.4 q=41.0 size=       0KiB time=00:00:00.26 bitrate=   1.4kbits/s speed=0.00628x elapsed=0:00:41.37    \nframe=   15 fps=0.4 q=41.0 size=       0KiB time=00:00:00.26 bitrate=   1.4kbits/s speed=0.0062x elapsed=0:00:41.92    \nframe=   15 fps=0.4 q=41.0 size=       0KiB time=00:00:00.26 bitrate=   1.4kbits/s speed=0.00612x elapsed=0:00:42.47    \nframe=   15 fps=0.3 q=41.0 size=       0KiB time=00:00:00.26 bitrate=   1.4kbits/s speed=0.00604x elapsed=0:00:43.05    \nframe=   16 fps=0.4 q=40.9 size=       0KiB time=00:00:00.26 bitrate=   1.4kbits/s speed=0.00597x elapsed=0:00:43.58    \nframe=   17 fps=0.4 q=33.0 size=       0KiB time=00:00:00.30 bitrate=   1.2kbits/s speed=0.00679x elapsed=0:00:44.18    \nframe=   17 fps=0.4 q=33.0 size=       0KiB time=00:00:00.30 bitrate=   1.2kbits/s speed=0.0067x elapsed=0:00:44.76    \nframe=   18 fps=0.4 q=41.0 size=       0KiB time=00:00:00.32 bitrate=   1.1kbits/s speed=0.00707x elapsed=0:00:45.28    \nframe=   19 fps=0.4 q=42.0 size=       0KiB time=00:00:00.34 bitrate=   1.0kbits/s speed=0.00742x elapsed=0:00:45.84    \nframe=   19 fps=0.4 q=42.0 size=       0KiB time=00:00:00.34 bitrate=   1.0kbits/s speed=0.00732x elapsed=0:00:46.41    \nframe=   19 fps=0.4 q=42.0 size=       0KiB time=00:00:00.34 bitrate=   1.0kbits/s speed=0.00724x elapsed=0:00:46.97    \nframe=   19 fps=0.4 q=42.0 size=       0KiB time=00:00:00.34 bitrate=   1.0kbits/s speed=0.00716x elapsed=0:00:47.48    \nframe=   20 fps=0.4 q=42.0 size=       0KiB time=00:00:00.36 bitrate=   1.0kbits/s speed=0.0075x elapsed=0:00:48.00    \nframe=   20 fps=0.4 q=42.0 size=       0KiB time=00:00:00.36 bitrate=   1.0kbits/s speed=0.00742x elapsed=0:00:48.53    \nframe=   20 fps=0.4 q=42.0 size=       0KiB time=00:00:00.36 bitrate=   1.0kbits/s speed=0.00734x elapsed=0:00:49.06    \nframe=   21 fps=0.4 q=42.0 size=       0KiB time=00:00:00.38 bitrate=   0.9kbits/s speed=0.00766x elapsed=0:00:49.61    \nframe=   22 fps=0.4 q=33.6 size=       0KiB time=00:00:00.40 bitrate=   0.9kbits/s speed=0.00798x elapsed=0:00:50.14    \nframe=   22 fps=0.4 q=33.6 size=       0KiB time=00:00:00.40 bitrate=   0.9kbits/s speed=0.00789x elapsed=0:00:50.70    \nframe=   22 fps=0.4 q=33.6 size=       0KiB time=00:00:00.40 bitrate=   0.9kbits/s speed=0.0078x elapsed=0:00:51.26    \nframe=   22 fps=0.4 q=33.6 size=       0KiB time=00:00:00.40 bitrate=   0.9kbits/s speed=0.00772x elapsed=0:00:51.83    \nframe=   22 fps=0.4 q=33.6 size=       0KiB time=00:00:00.40 bitrate=   0.9kbits/s speed=0.00764x elapsed=0:00:52.37    \nframe=   22 fps=0.4 q=33.6 size=       0KiB time=00:00:00.40 bitrate=   0.9kbits/s speed=0.00756x elapsed=0:00:52.91    \nframe=   22 fps=0.4 q=33.6 size=       0KiB time=00:00:00.40 bitrate=   0.9kbits/s speed=0.00747x elapsed=0:00:53.52    \nframe=   22 fps=0.4 q=33.6 size=       0KiB time=00:00:00.40 bitrate=   0.9kbits/s speed=0.00739x elapsed=0:00:54.09    \nframe=   23 fps=0.4 q=41.0 size=       0KiB time=00:00:00.42 bitrate=   0.8kbits/s speed=0.00768x elapsed=0:00:54.69    \nframe=   23 fps=0.4 q=41.0 size=       0KiB time=00:00:00.42 bitrate=   0.8kbits/s speed=0.0076x elapsed=0:00:55.25    \nframe=   23 fps=0.4 q=41.0 size=       0KiB time=00:00:00.42 bitrate=   0.8kbits/s speed=0.00753x elapsed=0:00:55.79    \nframe=   23 fps=0.4 q=41.0 size=       0KiB time=00:00:00.42 bitrate=   0.8kbits/s speed=0.00746x elapsed=0:00:56.33    \nframe=   23 fps=0.4 q=41.0 size=       0KiB time=00:00:00.42 bitrate=   0.8kbits/s speed=0.00738x elapsed=0:00:56.94    \nframe=   23 fps=0.4 q=41.0 size=       0KiB time=00:00:00.42 bitrate=   0.8kbits/s speed=0.0073x elapsed=0:00:57.55    \nframe=   23 fps=0.4 q=41.0 size=       0KiB time=00:00:00.42 bitrate=   0.8kbits/s speed=0.00722x elapsed=0:00:58.18    \nframe=   23 fps=0.4 q=41.0 size=       0KiB time=00:00:00.42 bitrate=   0.8kbits/s speed=0.00715x elapsed=0:00:58.76    \nframe=   23 fps=0.4 q=41.0 size=       0KiB time=00:00:00.42 bitrate=   0.8kbits/s speed=0.00708x elapsed=0:00:59.32    \nframe=   24 fps=0.4 q=41.9 size=       0KiB time=00:00:00.44 bitrate=   0.8kbits/s speed=0.00735x elapsed=0:00:59.86    \nframe=   24 fps=0.4 q=41.9 size=       0KiB time=00:00:00.44 bitrate=   0.8kbits/s speed=0.00728x elapsed=0:01:00.40    \nframe=   24 fps=0.4 q=41.9 size=       0KiB time=00:00:00.44 bitrate=   0.8kbits/s speed=0.00722x elapsed=0:01:00.97    \nframe=   24 fps=0.4 q=41.9 size=       0KiB time=00:00:00.44 bitrate=   0.8kbits/s speed=0.00715x elapsed=0:01:01.54    \nframe=   24 fps=0.4 q=41.9 size=       0KiB time=00:00:00.44 bitrate=   0.8kbits/s speed=0.00709x elapsed=0:01:02.09    \nframe=   25 fps=0.4 q=39.9 size=       0KiB time=00:00:00.46 bitrate=   0.8kbits/s speed=0.00735x elapsed=0:01:02.61    \nframe=   25 fps=0.4 q=39.9 size=       0KiB time=00:00:00.46 bitrate=   0.8kbits/s speed=0.00728x elapsed=0:01:03.16    \nframe=   26 fps=0.4 q=40.0 size=       0KiB time=00:00:00.48 bitrate=   0.7kbits/s speed=0.00754x elapsed=0:01:03.67    \nframe=   27 fps=0.4 q=32.4 size=       0KiB time=00:00:00.50 bitrate=   0.7kbits/s speed=0.00779x elapsed=0:01:04.22    \nframe=   28 fps=0.4 q=39.9 size=     256KiB time=00:00:00.52 bitrate=4033.7kbits/s speed=0.00803x elapsed=0:01:04.77    \nframe=   29 fps=0.4 q=40.0 size=     256KiB time=00:00:00.54 bitrate=3884.3kbits/s speed=0.00826x elapsed=0:01:05.36    \nframe=   30 fps=0.5 q=39.0 size=     256KiB time=00:00:00.56 bitrate=3745.5kbits/s speed=0.0085x elapsed=0:01:05.91    \nframe=   30 fps=0.5 q=39.0 size=     256KiB time=00:00:00.56 bitrate=3745.5kbits/s speed=0.00843x elapsed=0:01:06.42    \nframe=   30 fps=0.4 q=39.0 size=     256KiB time=00:00:00.56 bitrate=3745.5kbits/s speed=0.00836x elapsed=0:01:06.94    \nframe=   31 fps=0.5 q=39.0 size=     256KiB time=00:00:00.58 bitrate=3616.4kbits/s speed=0.00859x elapsed=0:01:07.50    \nframe=   32 fps=0.5 q=31.6 size=     256KiB time=00:00:00.60 bitrate=3495.8kbits/s speed=0.00882x elapsed=0:01:08.02    \nframe=   32 fps=0.5 q=31.6 size=     256KiB time=00:00:00.60 bitrate=3495.8kbits/s speed=0.00875x elapsed=0:01:08.55    \nframe=   33 fps=0.5 q=38.6 size=     256KiB time=00:00:00.62 bitrate=3383.1kbits/s speed=0.00897x elapsed=0:01:09.09    \nframe=   33 fps=0.5 q=38.6 size=     256KiB time=00:00:00.62 bitrate=3383.1kbits/s speed=0.0089x elapsed=0:01:09.65    \nframe=   33 fps=0.5 q=38.6 size=     256KiB time=00:00:00.62 bitrate=3383.1kbits/s speed=0.00883x elapsed=0:01:10.18    \nframe=   33 fps=0.5 q=38.6 size=     256KiB time=00:00:00.62 bitrate=3383.1kbits/s speed=0.00877x elapsed=0:01:10.72    \nframe=   35 fps=0.5 q=31.4 size=     256KiB time=00:00:00.66 bitrate=3178.0kbits/s speed=0.00926x elapsed=0:01:11.31    \nframe=   36 fps=0.5 q=37.9 size=     256KiB time=00:00:00.68 bitrate=3084.6kbits/s speed=0.00946x elapsed=0:01:11.86    \nframe=   36 fps=0.5 q=37.9 size=     256KiB time=00:00:00.68 bitrate=3084.6kbits/s speed=0.00939x elapsed=0:01:12.39    \nframe=   36 fps=0.5 q=37.9 size=     256KiB time=00:00:00.68 bitrate=3084.6kbits/s speed=0.00932x elapsed=0:01:12.92    \nframe=   36 fps=0.5 q=37.9 size=     256KiB time=00:00:00.68 bitrate=3084.6kbits/s speed=0.00926x elapsed=0:01:13.45    \nframe=   36 fps=0.5 q=37.9 size=     256KiB time=00:00:00.68 bitrate=3084.6kbits/s speed=0.00918x elapsed=0:01:14.08    \nframe=   36 fps=0.5 q=37.9 size=     256KiB time=00:00:00.68 bitrate=3084.6kbits/s speed=0.0091x elapsed=0:01:14.73    \nframe=   37 fps=0.5 q=38.0 size=     256KiB time=00:00:00.68 bitrate=3084.6kbits/s speed=0.00902x elapsed=0:01:15.37    \nframe=   37 fps=0.5 q=38.0 size=     256KiB time=00:00:00.70 bitrate=2996.4kbits/s speed=0.00921x elapsed=0:01:15.96    \nframe=   38 fps=0.5 q=37.9 size=     256KiB time=00:00:00.70 bitrate=2996.4kbits/s speed=0.00914x elapsed=0:01:16.55    \nframe=   39 fps=0.5 q=37.8 size=     256KiB time=00:00:00.74 bitrate=2834.5kbits/s speed=0.00959x elapsed=0:01:17.14    \nframe=   40 fps=0.5 q=30.8 size=     256KiB time=00:00:00.76 bitrate=2759.9kbits/s speed=0.00978x elapsed=0:01:17.67    \nframe=   40 fps=0.5 q=30.8 size=     256KiB time=00:00:00.76 bitrate=2759.9kbits/s speed=0.00972x elapsed=0:01:18.20    \nframe=   41 fps=0.5 q=38.0 size=     256KiB time=00:00:00.78 bitrate=2689.1kbits/s speed=0.0099x elapsed=0:01:18.77    \nframe=   41 fps=0.5 q=38.0 size=     256KiB time=00:00:00.78 bitrate=2689.1kbits/s speed=0.00983x elapsed=0:01:19.32    \nframe=   42 fps=0.5 q=38.0 size=     256KiB time=00:00:00.80 bitrate=2621.9kbits/s speed=0.01x elapsed=0:01:19.88    \nframe=   42 fps=0.5 q=38.0 size=     256KiB time=00:00:00.80 bitrate=2621.9kbits/s speed=0.00994x elapsed=0:01:20.47    \nframe=   42 fps=0.5 q=38.0 size=     256KiB time=00:00:00.80 bitrate=2621.9kbits/s speed=0.00987x elapsed=0:01:21.04    \nframe=   42 fps=0.5 q=38.0 size=     256KiB time=00:00:00.80 bitrate=2621.9kbits/s speed=0.0098x elapsed=0:01:21.62    \nframe=   42 fps=0.5 q=38.0 size=     256KiB time=00:00:00.80 bitrate=2621.9kbits/s speed=0.00973x elapsed=0:01:22.18    \nframe=   42 fps=0.5 q=38.0 size=     256KiB time=00:00:00.80 bitrate=2621.9kbits/s speed=0.00967x elapsed=0:01:22.72    \nframe=   42 fps=0.5 q=38.0 size=     256KiB time=00:00:00.80 bitrate=2621.9kbits/s speed=0.00961x elapsed=0:01:23.28    \nframe=   42 fps=0.5 q=38.0 size=     256KiB time=00:00:00.80 bitrate=2621.9kbits/s speed=0.00954x elapsed=0:01:23.87    \nframe=   43 fps=0.5 q=37.9 size=     256KiB time=00:00:00.82 bitrate=2557.9kbits/s speed=0.00971x elapsed=0:01:24.43    \nframe=   43 fps=0.5 q=37.9 size=     256KiB time=00:00:00.82 bitrate=2557.9kbits/s speed=0.00965x elapsed=0:01:24.95    \nframe=   43 fps=0.5 q=37.9 size=     256KiB time=00:00:00.82 bitrate=2557.9kbits/s speed=0.00959x elapsed=0:01:25.50    \nframe=   44 fps=0.5 q=38.0 size=     256KiB time=00:00:00.84 bitrate=2497.0kbits/s speed=0.00975x elapsed=0:01:26.13    \nframe=   44 fps=0.5 q=38.0 size=     256KiB time=00:00:00.84 bitrate=2497.0kbits/s speed=0.00969x elapsed=0:01:26.70    \nframe=   44 fps=0.5 q=38.0 size=     256KiB time=00:00:00.84 bitrate=2497.0kbits/s speed=0.00962x elapsed=0:01:27.27    \nframe=   44 fps=0.5 q=38.0 size=     256KiB time=00:00:00.84 bitrate=2497.0kbits/s speed=0.00956x elapsed=0:01:27.85    \nframe=   44 fps=0.5 q=38.0 size=     256KiB time=00:00:00.84 bitrate=2497.0kbits/s speed=0.0095x elapsed=0:01:28.45    \nframe=   44 fps=0.5 q=38.0 size=     256KiB time=00:00:00.84 bitrate=2497.0kbits/s speed=0.00944x elapsed=0:01:29.01    \nframe=   44 fps=0.5 q=38.0 size=     256KiB time=00:00:00.84 bitrate=2497.0kbits/s speed=0.00938x elapsed=0:01:29.59    \nframe=   45 fps=0.5 q=30.6 size=     256KiB time=00:00:00.86 bitrate=2439.0kbits/s speed=0.00954x elapsed=0:01:30.17    \nframe=   45 fps=0.5 q=30.6 size=     256KiB time=00:00:00.86 bitrate=2439.0kbits/s speed=0.00947x elapsed=0:01:30.77    \nframe=   46 fps=0.5 q=37.8 size=     256KiB time=00:00:00.88 bitrate=2383.5kbits/s speed=0.00963x elapsed=0:01:31.35    \nframe=   46 fps=0.5 q=37.8 size=     256KiB time=00:00:00.88 bitrate=2383.5kbits/s speed=0.00957x elapsed=0:01:31.93    \nframe=   46 fps=0.5 q=37.8 size=     256KiB time=00:00:00.88 bitrate=2383.5kbits/s speed=0.00951x elapsed=0:01:32.50    \nframe=   46 fps=0.5 q=37.8 size=     256KiB time=00:00:00.88 bitrate=2383.5kbits/s speed=0.00945x elapsed=0:01:33.11    \nframe=   46 fps=0.5 q=37.8 size=     256KiB time=00:00:00.88 bitrate=2383.5kbits/s speed=0.00939x elapsed=0:01:33.67    \nframe=   46 fps=0.5 q=37.8 size=     256KiB time=00:00:00.88 bitrate=2383.5kbits/s speed=0.00934x elapsed=0:01:34.24    \nframe=   46 fps=0.5 q=37.8 size=     256KiB time=00:00:00.88 bitrate=2383.5kbits/s speed=0.00928x elapsed=0:01:34.80    \nframe=   46 fps=0.5 q=37.8 size=     256KiB time=00:00:00.88 bitrate=2383.5kbits/s speed=0.00922x elapsed=0:01:35.40    \nframe=   46 fps=0.5 q=37.8 size=     256KiB time=00:00:00.88 bitrate=2383.5kbits/s speed=0.00917x elapsed=0:01:35.99    \nframe=   46 fps=0.5 q=37.8 size=     256KiB time=00:00:00.88 bitrate=2383.5kbits/s speed=0.00911x elapsed=0:01:36.62    \nframe=   47 fps=0.5 q=38.0 size=     256KiB time=00:00:00.90 bitrate=2330.6kbits/s speed=0.00926x elapsed=0:01:37.21    \nframe=   48 fps=0.5 q=37.0 size=     256KiB time=00:00:00.92 bitrate=2279.9kbits/s speed=0.00941x elapsed=0:01:37.80    \nframe=   48 fps=0.5 q=37.0 size=     256KiB time=00:00:00.92 bitrate=2279.9kbits/s speed=0.00935x elapsed=0:01:38.44    \nframe=   48 fps=0.5 q=37.0 size=     256KiB time=00:00:00.92 bitrate=2279.9kbits/s speed=0.00929x elapsed=0:01:39.01    \nframe=   49 fps=0.5 q=30.1 size=     256KiB time=00:00:00.94 bitrate=2231.4kbits/s speed=0.00944x elapsed=0:01:39.58    \nframe=   49 fps=0.5 q=30.1 size=     256KiB time=00:00:00.94 bitrate=2231.4kbits/s speed=0.00938x elapsed=0:01:40.19    \nframe=   50 fps=0.5 q=36.1 size=     256KiB time=00:00:00.96 bitrate=2184.9kbits/s speed=0.00952x elapsed=0:01:40.81    \nframe=   50 fps=0.5 q=36.1 size=     256KiB time=00:00:00.96 bitrate=2184.9kbits/s speed=0.00947x elapsed=0:01:41.39    \nframe=   51 fps=0.5 q=37.0 size=     256KiB time=00:00:00.98 bitrate=2140.3kbits/s speed=0.00961x elapsed=0:01:42.00    \nframe=   51 fps=0.5 q=37.0 size=     256KiB time=00:00:00.98 bitrate=2140.3kbits/s speed=0.00956x elapsed=0:01:42.51    \nframe=   51 fps=0.5 q=37.0 size=     256KiB time=00:00:00.98 bitrate=2140.3kbits/s speed=0.00951x elapsed=0:01:43.06    \nframe=   51 fps=0.5 q=37.0 size=     256KiB time=00:00:00.98 bitrate=2140.3kbits/s speed=0.00946x elapsed=0:01:43.60    \nframe=   51 fps=0.5 q=37.0 size=     256KiB time=00:00:00.98 bitrate=2140.3kbits/s speed=0.00941x elapsed=0:01:44.16    \nframe=   52 fps=0.5 q=37.0 size=     256KiB time=00:00:00.98 bitrate=2140.3kbits/s speed=0.00936x elapsed=0:01:44.69    \nframe=   52 fps=0.5 q=37.0 size=     256KiB time=00:00:01.00 bitrate=2097.5kbits/s speed=0.0095x elapsed=0:01:45.23    \nframe=   52 fps=0.5 q=37.0 size=     256KiB time=00:00:01.00 bitrate=2097.5kbits/s speed=0.00945x elapsed=0:01:45.80    \nframe=   54 fps=0.5 q=29.6 size=     256KiB time=00:00:01.02 bitrate=2056.4kbits/s speed=0.00959x elapsed=0:01:46.35    \nframe=   55 fps=0.5 q=36.1 size=     256KiB time=00:00:01.06 bitrate=1978.8kbits/s speed=0.00992x elapsed=0:01:46.90    \nframe=   56 fps=0.5 q=38.0 size=     256KiB time=00:00:01.08 bitrate=1942.1kbits/s speed=0.01x elapsed=0:01:47.47    \nframe=   56 fps=0.5 q=38.0 size=     256KiB time=00:00:01.08 bitrate=1942.1kbits/s speed=0.00999x elapsed=0:01:48.09    \nframe=   56 fps=0.5 q=38.0 size=     256KiB time=00:00:01.08 bitrate=1942.1kbits/s speed=0.00994x elapsed=0:01:48.66    \nframe=   56 fps=0.5 q=38.0 size=     256KiB time=00:00:01.08 bitrate=1942.1kbits/s speed=0.00988x elapsed=0:01:49.28    \nframe=   56 fps=0.5 q=38.0 size=     256KiB time=00:00:01.08 bitrate=1942.1kbits/s speed=0.00983x elapsed=0:01:49.85    \nframe=   56 fps=0.5 q=38.0 size=     256KiB time=00:00:01.08 bitrate=1942.1kbits/s speed=0.00978x elapsed=0:01:50.42    \nframe=   56 fps=0.5 q=38.0 size=     256KiB time=00:00:01.08 bitrate=1942.1kbits/s speed=0.00973x elapsed=0:01:51.00    \nframe=   56 fps=0.5 q=38.0 size=     256KiB time=00:00:01.08 bitrate=1942.1kbits/s speed=0.00968x elapsed=0:01:51.55    \nframe=   56 fps=0.5 q=38.0 size=     256KiB time=00:00:01.08 bitrate=1942.1kbits/s speed=0.00963x elapsed=0:01:52.10    \nframe=   57 fps=0.5 q=36.9 size=     256KiB time=00:00:01.10 bitrate=1906.8kbits/s speed=0.00976x elapsed=0:01:52.65    \nframe=   57 fps=0.5 q=36.9 size=     256KiB time=00:00:01.10 bitrate=1906.8kbits/s speed=0.00972x elapsed=0:01:53.21    \nframe=   58 fps=0.5 q=37.0 size=     256KiB time=00:00:01.12 bitrate=1872.8kbits/s speed=0.00984x elapsed=0:01:53.76    \nframe=   58 fps=0.5 q=37.0 size=     256KiB time=00:00:01.12 bitrate=1872.8kbits/s speed=0.0098x elapsed=0:01:54.32    \nframe=   58 fps=0.5 q=37.0 size=     256KiB time=00:00:01.12 bitrate=1872.8kbits/s speed=0.00975x elapsed=0:01:54.84    \nframe=   58 fps=0.5 q=37.0 size=     256KiB time=00:00:01.12 bitrate=1872.8kbits/s speed=0.00971x elapsed=0:01:55.38    \nframe=   59 fps=0.5 q=29.3 size=     256KiB time=00:00:01.12 bitrate=1872.8kbits/s speed=0.00966x elapsed=0:01:55.91    \nframe=   60 fps=0.5 q=36.9 size=     512KiB time=00:00:01.14 bitrate=3679.5kbits/s speed=0.00978x elapsed=0:01:56.54    \nframe=   60 fps=0.5 q=36.9 size=     512KiB time=00:00:01.16 bitrate=3616.1kbits/s speed=0.0099x elapsed=0:01:57.14    \nframe=   60 fps=0.5 q=36.9 size=     512KiB time=00:00:01.16 bitrate=3616.1kbits/s speed=0.00986x elapsed=0:01:57.69    \nframe=   61 fps=0.5 q=37.0 size=     512KiB time=00:00:01.18 bitrate=3554.8kbits/s speed=0.00997x elapsed=0:01:58.29    \nframe=   61 fps=0.5 q=37.0 size=     512KiB time=00:00:01.18 bitrate=3554.8kbits/s speed=0.00993x elapsed=0:01:58.86    \nframe=   61 fps=0.5 q=37.0 size=     512KiB time=00:00:01.18 bitrate=3554.8kbits/s speed=0.00988x elapsed=0:01:59.43    \nframe=   62 fps=0.5 q=36.9 size=     512KiB time=00:00:01.20 bitrate=3495.5kbits/s speed=0.01x elapsed=0:01:59.99    \nframe=   62 fps=0.5 q=36.9 size=     512KiB time=00:00:01.20 bitrate=3495.5kbits/s speed=0.00995x elapsed=0:02:00.54    \nframe=   62 fps=0.5 q=36.9 size=     512KiB time=00:00:01.20 bitrate=3495.5kbits/s speed=0.00991x elapsed=0:02:01.12    \nframe=   63 fps=0.5 q=36.9 size=     512KiB time=00:00:01.22 bitrate=3438.2kbits/s speed=0.01x elapsed=0:02:01.64    \nframe=   63 fps=0.5 q=36.9 size=     512KiB time=00:00:01.22 bitrate=3438.2kbits/s speed=0.00998x elapsed=0:02:02.19    \nframe=   63 fps=0.5 q=36.9 size=     512KiB time=00:00:01.22 bitrate=3438.2kbits/s speed=0.00994x elapsed=0:02:02.74    \nframe=   63 fps=0.5 q=36.9 size=     512KiB time=00:00:01.22 bitrate=3438.2kbits/s speed=0.0099x elapsed=0:02:03.26    \nframe=   63 fps=0.5 q=36.9 size=     512KiB time=00:00:01.22 bitrate=3438.2kbits/s speed=0.00985x elapsed=0:02:03.81    \nframe=   63 fps=0.5 q=36.9 size=     512KiB time=00:00:01.22 bitrate=3438.2kbits/s speed=0.00981x elapsed=0:02:04.33    \nframe=   64 fps=0.5 q=29.2 size=     512KiB time=00:00:01.22 bitrate=3438.2kbits/s speed=0.00977x elapsed=0:02:04.88    \nframe=   64 fps=0.5 q=29.2 size=     512KiB time=00:00:01.24 bitrate=3382.8kbits/s speed=0.00989x elapsed=0:02:05.43    \nframe=   65 fps=0.5 q=36.9 size=     512KiB time=00:00:01.26 bitrate=3329.1kbits/s speed=0.01x elapsed=0:02:06.01    \nframe=   65 fps=0.5 q=36.9 size=     512KiB time=00:00:01.26 bitrate=3329.1kbits/s speed=0.00995x elapsed=0:02:06.61    \nframe=   65 fps=0.5 q=36.9 size=     512KiB time=00:00:01.26 bitrate=3329.1kbits/s speed=0.00991x elapsed=0:02:07.18    \nframe=   65 fps=0.5 q=36.9 size=     512KiB time=00:00:01.26 bitrate=3329.1kbits/s speed=0.00987x elapsed=0:02:07.71    \nframe=   65 fps=0.5 q=36.9 size=     512KiB time=00:00:01.26 bitrate=3329.1kbits/s speed=0.00982x elapsed=0:02:08.25    \nframe=   65 fps=0.5 q=36.9 size=     512KiB time=00:00:01.26 bitrate=3329.1kbits/s speed=0.00978x elapsed=0:02:08.78    \nframe=   65 fps=0.5 q=36.9 size=     512KiB time=00:00:01.26 bitrate=3329.1kbits/s speed=0.00974x elapsed=0:02:09.32    \nframe=   65 fps=0.5 q=36.9 size=     512KiB time=00:00:01.26 bitrate=3329.1kbits/s speed=0.0097x elapsed=0:02:09.87    \nframe=   65 fps=0.5 q=36.9 size=     512KiB time=00:00:01.26 bitrate=3329.1kbits/s speed=0.00966x elapsed=0:02:10.40    \nframe=   66 fps=0.5 q=37.0 size=     512KiB time=00:00:01.28 bitrate=3277.1kbits/s speed=0.00977x elapsed=0:02:10.95    \nframe=   66 fps=0.5 q=37.0 size=     512KiB time=00:00:01.28 bitrate=3277.1kbits/s speed=0.00973x elapsed=0:02:11.55    \nframe=   66 fps=0.5 q=37.0 size=     512KiB time=00:00:01.28 bitrate=3277.1kbits/s speed=0.00969x elapsed=0:02:12.14    \nframe=   66 fps=0.5 q=37.0 size=     512KiB time=00:00:01.28 bitrate=3277.1kbits/s speed=0.00965x elapsed=0:02:12.71    \nframe=   66 fps=0.5 q=37.0 size=     512KiB time=00:00:01.28 bitrate=3277.1kbits/s speed=0.00961x elapsed=0:02:13.24    \nframe=   66 fps=0.5 q=37.0 size=     512KiB time=00:00:01.28 bitrate=3277.1kbits/s speed=0.00957x elapsed=0:02:13.80    \nframe=   67 fps=0.5 q=35.8 size=     512KiB time=00:00:01.28 bitrate=3277.1kbits/s speed=0.00953x elapsed=0:02:14.35    \nframe=   67 fps=0.5 q=35.8 size=     512KiB time=00:00:01.30 bitrate=3226.7kbits/s speed=0.00964x elapsed=0:02:14.90    \nframe=   67 fps=0.5 q=35.8 size=     512KiB time=00:00:01.30 bitrate=3226.7kbits/s speed=0.0096x elapsed=0:02:15.46    \nframe=   67 fps=0.5 q=35.8 size=     512KiB time=00:00:01.30 bitrate=3226.7kbits/s speed=0.00956x elapsed=0:02:16.02    \nframe=   67 fps=0.5 q=35.8 size=     512KiB time=00:00:01.30 bitrate=3226.7kbits/s speed=0.00952x elapsed=0:02:16.55    \nframe=   67 fps=0.5 q=35.8 size=     512KiB time=00:00:01.30 bitrate=3226.7kbits/s speed=0.00948x elapsed=0:02:17.09    \nframe=   67 fps=0.5 q=35.8 size=     512KiB time=00:00:01.30 bitrate=3226.7kbits/s speed=0.00944x elapsed=0:02:17.66    \nframe=   67 fps=0.5 q=35.8 size=     512KiB time=00:00:01.30 bitrate=3226.7kbits/s speed=0.00941x elapsed=0:02:18.19    \nframe=   68 fps=0.5 q=36.0 size=     512KiB time=00:00:01.32 bitrate=3177.8kbits/s speed=0.00951x elapsed=0:02:18.75    \nframe=   69 fps=0.5 q=28.8 size=     512KiB time=00:00:01.34 bitrate=3130.3kbits/s speed=0.00962x elapsed=0:02:19.28    \nframe=   70 fps=0.5 q=35.9 size=     512KiB time=00:00:01.36 bitrate=3084.3kbits/s speed=0.00973x elapsed=0:02:19.82    \nframe=   70 fps=0.5 q=35.9 size=     512KiB time=00:00:01.36 bitrate=3084.3kbits/s speed=0.00969x elapsed=0:02:20.35    \nframe=   70 fps=0.5 q=35.9 size=     512KiB time=00:00:01.36 bitrate=3084.3kbits/s speed=0.00965x elapsed=0:02:20.91    \nframe=   70 fps=0.5 q=35.9 size=     512KiB time=00:00:01.36 bitrate=3084.3kbits/s speed=0.00961x elapsed=0:02:21.44    \nframe=   70 fps=0.5 q=35.9 size=     512KiB time=00:00:01.36 bitrate=3084.3kbits/s speed=0.00958x elapsed=0:02:22.00    \nframe=   71 fps=0.5 q=37.0 size=     512KiB time=00:00:01.38 bitrate=3039.6kbits/s speed=0.00968x elapsed=0:02:22.53    \nframe=   71 fps=0.5 q=37.0 size=     512KiB time=00:00:01.38 bitrate=3039.6kbits/s speed=0.00964x elapsed=0:02:23.08    \nframe=   71 fps=0.5 q=37.0 size=     512KiB time=00:00:01.38 bitrate=3039.6kbits/s speed=0.00961x elapsed=0:02:23.63    \nframe=   71 fps=0.5 q=37.0 size=     512KiB time=00:00:01.38 bitrate=3039.6kbits/s speed=0.00957x elapsed=0:02:24.15    \nframe=   72 fps=0.5 q=35.9 size=     512KiB time=00:00:01.40 bitrate=2996.2kbits/s speed=0.00967x elapsed=0:02:24.70    \nframe=   72 fps=0.5 q=35.9 size=     512KiB time=00:00:01.40 bitrate=2996.2kbits/s speed=0.00964x elapsed=0:02:25.24    \nframe=   73 fps=0.5 q=36.0 size=     512KiB time=00:00:01.42 bitrate=2954.0kbits/s speed=0.00974x elapsed=0:02:25.78    \nframe=   74 fps=0.5 q=29.3 size=     512KiB time=00:00:01.44 bitrate=2913.0kbits/s speed=0.00984x elapsed=0:02:26.32    \nframe=   75 fps=0.5 q=34.9 size=     512KiB time=00:00:01.46 bitrate=2873.1kbits/s speed=0.00994x elapsed=0:02:26.85    \nframe=   75 fps=0.5 q=34.9 size=     512KiB time=00:00:01.46 bitrate=2873.1kbits/s speed=0.00991x elapsed=0:02:27.39    \nframe=   76 fps=0.5 q=36.0 size=     512KiB time=00:00:01.48 bitrate=2834.2kbits/s speed=0.01x elapsed=0:02:27.93    \nframe=   76 fps=0.5 q=36.0 size=     512KiB time=00:00:01.48 bitrate=2834.2kbits/s speed=0.00997x elapsed=0:02:28.45    \nframe=   76 fps=0.5 q=36.0 size=     512KiB time=00:00:01.48 bitrate=2834.2kbits/s speed=0.00993x elapsed=0:02:28.97    \nframe=   76 fps=0.5 q=36.0 size=     512KiB time=00:00:01.48 bitrate=2834.2kbits/s speed=0.0099x elapsed=0:02:29.49    \nframe=   76 fps=0.5 q=36.0 size=     512KiB time=00:00:01.48 bitrate=2834.2kbits/s speed=0.00986x elapsed=0:02:30.03    \nframe=   77 fps=0.5 q=36.0 size=     512KiB time=00:00:01.50 bitrate=2796.4kbits/s speed=0.00996x elapsed=0:02:30.55    \nframe=   77 fps=0.5 q=36.0 size=     512KiB time=00:00:01.50 bitrate=2796.4kbits/s speed=0.00993x elapsed=0:02:31.07    \nframe=   77 fps=0.5 q=36.0 size=     512KiB time=00:00:01.50 bitrate=2796.4kbits/s speed=0.00989x elapsed=0:02:31.67    \nframe=   77 fps=0.5 q=36.0 size=     512KiB time=00:00:01.50 bitrate=2796.4kbits/s speed=0.00985x elapsed=0:02:32.29    \nframe=   77 fps=0.5 q=36.0 size=     512KiB time=00:00:01.50 bitrate=2796.4kbits/s speed=0.00981x elapsed=0:02:32.87    \nframe=   77 fps=0.5 q=36.0 size=     512KiB time=00:00:01.50 bitrate=2796.4kbits/s speed=0.00978x elapsed=0:02:33.43    \nframe=   78 fps=0.5 q=36.0 size=     512KiB time=00:00:01.52 bitrate=2759.6kbits/s speed=0.00987x elapsed=0:02:34.02    \nframe=   80 fps=0.5 q=35.8 size=     512KiB time=00:00:01.56 bitrate=2688.9kbits/s speed=0.0101x elapsed=0:02:34.58    \nframe=   80 fps=0.5 q=35.8 size=     512KiB time=00:00:01.56 bitrate=2688.9kbits/s speed=0.0101x elapsed=0:02:35.15    \nframe=   80 fps=0.5 q=35.8 size=     512KiB time=00:00:01.56 bitrate=2688.9kbits/s speed=0.01x elapsed=0:02:35.67    \nframe=   80 fps=0.5 q=35.8 size=     512KiB time=00:00:01.56 bitrate=2688.9kbits/s speed=0.00999x elapsed=0:02:36.18    \nframe=   80 fps=0.5 q=35.8 size=     512KiB time=00:00:01.56 bitrate=2688.9kbits/s speed=0.00995x elapsed=0:02:36.71    \nframe=   81 fps=0.5 q=35.9 size=     512KiB time=00:00:01.58 bitrate=2654.8kbits/s speed=0.01x elapsed=0:02:37.23    \nframe=   81 fps=0.5 q=35.9 size=     512KiB time=00:00:01.58 bitrate=2654.8kbits/s speed=0.01x elapsed=0:02:37.76    \nframe=   82 fps=0.5 q=35.9 size=     512KiB time=00:00:01.60 bitrate=2621.7kbits/s speed=0.0101x elapsed=0:02:38.27    \nframe=   82 fps=0.5 q=35.9 size=     512KiB time=00:00:01.60 bitrate=2621.7kbits/s speed=0.0101x elapsed=0:02:38.80    \nframe=   83 fps=0.5 q=36.0 size=     512KiB time=00:00:01.62 bitrate=2589.3kbits/s speed=0.0102x elapsed=0:02:39.33    \nframe=   85 fps=0.5 q=35.9 size=     512KiB time=00:00:01.66 bitrate=2526.9kbits/s speed=0.0104x elapsed=0:02:39.88    \nframe=   86 fps=0.5 q=37.0 size=     512KiB time=00:00:01.68 bitrate=2496.8kbits/s speed=0.0105x elapsed=0:02:40.39    \nframe=   86 fps=0.5 q=37.0 size=     512KiB time=00:00:01.68 bitrate=2496.8kbits/s speed=0.0104x elapsed=0:02:40.91    \nframe=   87 fps=0.5 q=35.9 size=     512KiB time=00:00:01.70 bitrate=2467.4kbits/s speed=0.0105x elapsed=0:02:41.41    \nframe=   88 fps=0.5 q=36.0 size=     512KiB time=00:00:01.72 bitrate=2438.8kbits/s speed=0.0106x elapsed=0:02:41.94    \nframe=   88 fps=0.5 q=36.0 size=     512KiB time=00:00:01.72 bitrate=2438.8kbits/s speed=0.0106x elapsed=0:02:42.45    \nframe=   90 fps=0.6 q=35.8 size=     768KiB time=00:00:01.76 bitrate=3574.9kbits/s speed=0.0108x elapsed=0:02:43.00    \nframe=   90 fps=0.6 q=35.8 size=     768KiB time=00:00:01.76 bitrate=3574.9kbits/s speed=0.0108x elapsed=0:02:43.51    \nframe=   91 fps=0.6 q=37.0 size=     768KiB time=00:00:01.78 bitrate=3534.7kbits/s speed=0.0109x elapsed=0:02:44.03    \nframe=   93 fps=0.6 q=29.7 size=     768KiB time=00:00:01.82 bitrate=3457.0kbits/s speed=0.0111x elapsed=0:02:44.58    \nframe=   93 fps=0.6 q=29.7 size=     768KiB time=00:00:01.82 bitrate=3457.0kbits/s speed=0.011x elapsed=0:02:45.14    \nframe=   93 fps=0.6 q=29.7 size=     768KiB time=00:00:01.82 bitrate=3457.0kbits/s speed=0.011x elapsed=0:02:45.66    \nframe=   94 fps=0.6 q=36.9 size=     768KiB time=00:00:01.84 bitrate=3419.5kbits/s speed=0.0111x elapsed=0:02:46.20    \nframe=   94 fps=0.6 q=36.9 size=     768KiB time=00:00:01.84 bitrate=3419.5kbits/s speed=0.011x elapsed=0:02:46.75    \nframe=   94 fps=0.6 q=36.9 size=     768KiB time=00:00:01.84 bitrate=3419.5kbits/s speed=0.011x elapsed=0:02:47.28    \nframe=   94 fps=0.6 q=36.9 size=     768KiB time=00:00:01.84 bitrate=3419.5kbits/s speed=0.011x elapsed=0:02:47.84    \nframe=   94 fps=0.6 q=36.9 size=     768KiB time=00:00:01.84 bitrate=3419.5kbits/s speed=0.0109x elapsed=0:02:48.40    \nframe=   95 fps=0.6 q=38.0 size=     768KiB time=00:00:01.86 bitrate=3382.7kbits/s speed=0.011x elapsed=0:02:48.95    \nframe=   95 fps=0.6 q=38.0 size=     768KiB time=00:00:01.86 bitrate=3382.7kbits/s speed=0.011x elapsed=0:02:49.51    \nframe=   96 fps=0.6 q=29.8 size=     768KiB time=00:00:01.88 bitrate=3346.7kbits/s speed=0.0111x elapsed=0:02:50.07    \nframe=   96 fps=0.6 q=29.8 size=     768KiB time=00:00:01.88 bitrate=3346.7kbits/s speed=0.011x elapsed=0:02:50.61    \nframe=   97 fps=0.6 q=30.2 size=     768KiB time=00:00:01.90 bitrate=3311.5kbits/s speed=0.0111x elapsed=0:02:51.17    \nframe=   97 fps=0.6 q=30.2 size=     768KiB time=00:00:01.90 bitrate=3311.5kbits/s speed=0.0111x elapsed=0:02:51.73    \nframe=   98 fps=0.6 q=38.0 size=     768KiB time=00:00:01.92 bitrate=3277.0kbits/s speed=0.0111x elapsed=0:02:52.29    \nframe=   98 fps=0.6 q=38.0 size=     768KiB time=00:00:01.92 bitrate=3277.0kbits/s speed=0.0111x elapsed=0:02:52.84    \nframe=  100 fps=0.6 q=38.0 size=     768KiB time=00:00:01.96 bitrate=3210.1kbits/s speed=0.0113x elapsed=0:02:53.40    \nframe=  101 fps=0.6 q=30.4 size=     768KiB time=00:00:01.98 bitrate=3177.7kbits/s speed=0.0114x elapsed=0:02:53.94    \nframe=  101 fps=0.6 q=30.4 size=     768KiB time=00:00:01.98 bitrate=3177.7kbits/s speed=0.0113x elapsed=0:02:54.50    \nframe=  101 fps=0.6 q=30.4 size=     768KiB time=00:00:01.98 bitrate=3177.7kbits/s speed=0.0113x elapsed=0:02:55.08    \nframe=  102 fps=0.6 q=36.8 size=     768KiB time=00:00:02.00 bitrate=3145.9kbits/s speed=0.0114x elapsed=0:02:55.61    \nframe=  103 fps=0.6 q=38.0 size=     768KiB time=00:00:02.02 bitrate=3114.8kbits/s speed=0.0115x elapsed=0:02:56.13    \nframe=  103 fps=0.6 q=38.0 size=     768KiB time=00:00:02.02 bitrate=3114.8kbits/s speed=0.0114x elapsed=0:02:56.68    \nframe=  103 fps=0.6 q=38.0 size=     768KiB time=00:00:02.02 bitrate=3114.8kbits/s speed=0.0114x elapsed=0:02:57.22    \nframe=  103 fps=0.6 q=38.0 size=     768KiB time=00:00:02.02 bitrate=3114.8kbits/s speed=0.0114x elapsed=0:02:57.75    \nframe=  104 fps=0.6 q=37.0 size=     768KiB time=00:00:02.04 bitrate=3084.2kbits/s speed=0.0114x elapsed=0:02:58.29    \nframe=  104 fps=0.6 q=37.0 size=     768KiB time=00:00:02.04 bitrate=3084.2kbits/s speed=0.0114x elapsed=0:02:58.83    \nframe=  105 fps=0.6 q=37.0 size=     768KiB time=00:00:02.06 bitrate=3054.3kbits/s speed=0.0115x elapsed=0:02:59.37    \nframe=  105 fps=0.6 q=37.0 size=     768KiB time=00:00:02.06 bitrate=3054.3kbits/s speed=0.0114x elapsed=0:02:59.94    \nframe=  105 fps=0.6 q=37.0 size=     768KiB time=00:00:02.06 bitrate=3054.3kbits/s speed=0.0114x elapsed=0:03:00.46    \nframe=  106 fps=0.6 q=29.8 size=     768KiB time=00:00:02.08 bitrate=3024.9kbits/s speed=0.0115x elapsed=0:03:00.99    \nframe=  106 fps=0.6 q=29.8 size=     768KiB time=00:00:02.08 bitrate=3024.9kbits/s speed=0.0115x elapsed=0:03:01.57    \nframe=  108 fps=0.6 q=37.0 size=     768KiB time=00:00:02.12 bitrate=2967.8kbits/s speed=0.0116x elapsed=0:03:02.12    \nframe=  109 fps=0.6 q=37.0 size=     768KiB time=00:00:02.14 bitrate=2940.1kbits/s speed=0.0117x elapsed=0:03:02.67    \nframe=  109 fps=0.6 q=37.0 size=     768KiB time=00:00:02.14 bitrate=2940.1kbits/s speed=0.0117x elapsed=0:03:03.19    \nframe=  110 fps=0.6 q=37.0 size=     768KiB time=00:00:02.16 bitrate=2912.9kbits/s speed=0.0118x elapsed=0:03:03.72    \nframe=  110 fps=0.6 q=37.0 size=     768KiB time=00:00:02.16 bitrate=2912.9kbits/s speed=0.0117x elapsed=0:03:04.30    \nframe=  110 fps=0.6 q=37.0 size=     768KiB time=00:00:02.16 bitrate=2912.9kbits/s speed=0.0117x elapsed=0:03:04.82    \nframe=  110 fps=0.6 q=37.0 size=     768KiB time=00:00:02.16 bitrate=2912.9kbits/s speed=0.0117x elapsed=0:03:05.39    \nframe=  110 fps=0.6 q=37.0 size=     768KiB time=00:00:02.16 bitrate=2912.9kbits/s speed=0.0116x elapsed=0:03:05.93    \nframe=  111 fps=0.6 q=29.2 size=     768KiB time=00:00:02.18 bitrate=2886.2kbits/s speed=0.0117x elapsed=0:03:06.45    \nframe=  112 fps=0.6 q=35.4 size=    1024KiB time=00:00:02.18 bitrate=3848.1kbits/s speed=0.0117x elapsed=0:03:06.97    \nframe=  112 fps=0.6 q=35.4 size=    1024KiB time=00:00:02.20 bitrate=3813.2kbits/s speed=0.0117x elapsed=0:03:07.57    \nframe=  113 fps=0.6 q=37.0 size=    1024KiB time=00:00:02.22 bitrate=3778.8kbits/s speed=0.0118x elapsed=0:03:08.15    \nframe=  113 fps=0.6 q=37.0 size=    1024KiB time=00:00:02.22 bitrate=3778.8kbits/s speed=0.0118x elapsed=0:03:08.73    \nframe=  113 fps=0.6 q=37.0 size=    1024KiB time=00:00:02.22 bitrate=3778.8kbits/s speed=0.0117x elapsed=0:03:09.25    \nframe=  114 fps=0.6 q=36.9 size=    1024KiB time=00:00:02.24 bitrate=3745.1kbits/s speed=0.0118x elapsed=0:03:09.77    \nframe=  114 fps=0.6 q=36.9 size=    1024KiB time=00:00:02.24 bitrate=3745.1kbits/s speed=0.0118x elapsed=0:03:10.34    \nframe=  114 fps=0.6 q=36.9 size=    1024KiB time=00:00:02.24 bitrate=3745.1kbits/s speed=0.0117x elapsed=0:03:10.90    \nframe=  115 fps=0.6 q=36.0 size=    1024KiB time=00:00:02.26 bitrate=3711.9kbits/s speed=0.0118x elapsed=0:03:11.42    \nframe=  115 fps=0.6 q=36.0 size=    1024KiB time=00:00:02.26 bitrate=3711.9kbits/s speed=0.0118x elapsed=0:03:12.00    \nframe=  117 fps=0.6 q=35.9 size=    1024KiB time=00:00:02.30 bitrate=3647.4kbits/s speed=0.0119x elapsed=0:03:12.53    \nframe=  117 fps=0.6 q=35.9 size=    1024KiB time=00:00:02.30 bitrate=3647.4kbits/s speed=0.0119x elapsed=0:03:13.07    \nframe=  117 fps=0.6 q=35.9 size=    1024KiB time=00:00:02.30 bitrate=3647.4kbits/s speed=0.0119x elapsed=0:03:13.59    \nframe=  118 fps=0.6 q=36.7 size=    1024KiB time=00:00:02.32 bitrate=3615.9kbits/s speed=0.012x elapsed=0:03:14.11    \nframe=  119 fps=0.6 q=36.0 size=    1024KiB time=00:00:02.34 bitrate=3585.0kbits/s speed=0.012x elapsed=0:03:14.63    \nframe=  119 fps=0.6 q=36.0 size=    1024KiB time=00:00:02.34 bitrate=3585.0kbits/s speed=0.012x elapsed=0:03:15.16    \nframe=  119 fps=0.6 q=36.0 size=    1024KiB time=00:00:02.34 bitrate=3585.0kbits/s speed=0.012x elapsed=0:03:15.68    \nframe=  121 fps=0.6 q=29.4 size=    1024KiB time=00:00:02.38 bitrate=3524.8kbits/s speed=0.0121x elapsed=0:03:16.23    \nframe=  122 fps=0.6 q=34.9 size=    1024KiB time=00:00:02.40 bitrate=3495.4kbits/s speed=0.0122x elapsed=0:03:16.75    \nframe=  122 fps=0.6 q=34.9 size=    1024KiB time=00:00:02.40 bitrate=3495.4kbits/s speed=0.0122x elapsed=0:03:17.31    \nframe=  123 fps=0.6 q=36.0 size=    1024KiB time=00:00:02.42 bitrate=3466.5kbits/s speed=0.0122x elapsed=0:03:17.85    \nframe=  124 fps=0.6 q=36.9 size=    1024KiB time=00:00:02.44 bitrate=3438.1kbits/s speed=0.0123x elapsed=0:03:18.39    \nframe=  125 fps=0.6 q=37.0 size=    1024KiB time=00:00:02.46 bitrate=3410.1kbits/s speed=0.0124x elapsed=0:03:18.91    \nframe=  126 fps=0.6 q=29.6 size=    1024KiB time=00:00:02.46 bitrate=3410.1kbits/s speed=0.0123x elapsed=0:03:19.43    \nframe=  127 fps=0.6 q=35.9 size=    1024KiB time=00:00:02.50 bitrate=3355.6kbits/s speed=0.0125x elapsed=0:03:20.00    \nframe=  127 fps=0.6 q=35.9 size=    1024KiB time=00:00:02.50 bitrate=3355.6kbits/s speed=0.0125x elapsed=0:03:20.56    \nframe=  127 fps=0.6 q=35.9 size=    1024KiB time=00:00:02.50 bitrate=3355.6kbits/s speed=0.0124x elapsed=0:03:21.13    \nframe=  127 fps=0.6 q=35.9 size=    1024KiB time=00:00:02.50 bitrate=3355.6kbits/s speed=0.0124x elapsed=0:03:21.69    \nframe=  128 fps=0.6 q=38.0 size=    1024KiB time=00:00:02.52 bitrate=3329.0kbits/s speed=0.0125x elapsed=0:03:22.25    \nframe=  128 fps=0.6 q=38.0 size=    1024KiB time=00:00:02.52 bitrate=3329.0kbits/s speed=0.0124x elapsed=0:03:22.80    \nframe=  128 fps=0.6 q=38.0 size=    1024KiB time=00:00:02.52 bitrate=3329.0kbits/s speed=0.0124x elapsed=0:03:23.33    \nframe=  129 fps=0.6 q=37.0 size=    1024KiB time=00:00:02.54 bitrate=3302.7kbits/s speed=0.0125x elapsed=0:03:23.88    \nframe=  130 fps=0.6 q=37.0 size=    1024KiB time=00:00:02.56 bitrate=3276.9kbits/s speed=0.0125x elapsed=0:03:24.44    \nframe=  130 fps=0.6 q=37.0 size=    1024KiB time=00:00:02.56 bitrate=3276.9kbits/s speed=0.0125x elapsed=0:03:24.97    \nframe=  131 fps=0.6 q=28.9 size=    1024KiB time=00:00:02.58 bitrate=3251.5kbits/s speed=0.0126x elapsed=0:03:25.53    \nframe=  132 fps=0.6 q=36.0 size=    1024KiB time=00:00:02.60 bitrate=3226.5kbits/s speed=0.0126x elapsed=0:03:26.08    \nframe=  132 fps=0.6 q=36.0 size=    1024KiB time=00:00:02.60 bitrate=3226.5kbits/s speed=0.0126x elapsed=0:03:26.60    \nframe=  133 fps=0.6 q=37.0 size=    1024KiB time=00:00:02.62 bitrate=3201.9kbits/s speed=0.0126x elapsed=0:03:27.13    \nframe=  133 fps=0.6 q=37.0 size=    1024KiB time=00:00:02.62 bitrate=3201.9kbits/s speed=0.0126x elapsed=0:03:27.67    \nframe=  135 fps=0.6 q=36.0 size=    1024KiB time=00:00:02.66 bitrate=3153.7kbits/s speed=0.0128x elapsed=0:03:28.19    \nframe=  135 fps=0.6 q=36.0 size=    1024KiB time=00:00:02.66 bitrate=3153.7kbits/s speed=0.0127x elapsed=0:03:28.71    \nframe=  136 fps=0.6 q=28.5 size=    1024KiB time=00:00:02.68 bitrate=3130.2kbits/s speed=0.0128x elapsed=0:03:29.23    \nframe=  136 fps=0.6 q=28.5 size=    1024KiB time=00:00:02.68 bitrate=3130.2kbits/s speed=0.0128x elapsed=0:03:29.75    \nframe=  137 fps=0.7 q=34.7 size=    1024KiB time=00:00:02.70 bitrate=3107.0kbits/s speed=0.0128x elapsed=0:03:30.26    \nframe=  137 fps=0.6 q=34.7 size=    1024KiB time=00:00:02.70 bitrate=3107.0kbits/s speed=0.0128x elapsed=0:03:30.78    \nframe=  138 fps=0.7 q=36.0 size=    1024KiB time=00:00:02.72 bitrate=3084.2kbits/s speed=0.0129x elapsed=0:03:31.30    \nframe=  139 fps=0.7 q=35.0 size=    1024KiB time=00:00:02.74 bitrate=3061.7kbits/s speed=0.0129x elapsed=0:03:31.81    \nframe=  140 fps=0.7 q=28.3 size=    1024KiB time=00:00:02.76 bitrate=3039.5kbits/s speed=0.013x elapsed=0:03:32.35    \nframe=  141 fps=0.7 q=33.3 size=    1280KiB time=00:00:02.78 bitrate=3772.0kbits/s speed=0.0131x elapsed=0:03:32.91    \nframe=  141 fps=0.7 q=33.3 size=    1280KiB time=00:00:02.78 bitrate=3772.0kbits/s speed=0.013x elapsed=0:03:33.45    \nframe=  142 fps=0.7 q=35.0 size=    1280KiB time=00:00:02.80 bitrate=3745.0kbits/s speed=0.0131x elapsed=0:03:33.99    \nframe=  143 fps=0.7 q=34.9 size=    1280KiB time=00:00:02.82 bitrate=3718.5kbits/s speed=0.0131x elapsed=0:03:34.54    \nframe=  144 fps=0.7 q=35.0 size=    1280KiB time=00:00:02.84 bitrate=3692.3kbits/s speed=0.0132x elapsed=0:03:35.06    \nframe=  145 fps=0.7 q=28.3 size=    1280KiB time=00:00:02.86 bitrate=3666.5kbits/s speed=0.0133x elapsed=0:03:35.60    \nframe=  146 fps=0.7 q=34.2 size=    1280KiB time=00:00:02.88 bitrate=3641.0kbits/s speed=0.0133x elapsed=0:03:36.14    \nframe=  146 fps=0.7 q=34.2 size=    1280KiB time=00:00:02.88 bitrate=3641.0kbits/s speed=0.0133x elapsed=0:03:36.68    \nframe=  147 fps=0.7 q=36.0 size=    1280KiB time=00:00:02.90 bitrate=3615.9kbits/s speed=0.0134x elapsed=0:03:37.21    \nframe=  148 fps=0.7 q=36.0 size=    1280KiB time=00:00:02.92 bitrate=3591.1kbits/s speed=0.0134x elapsed=0:03:37.73    \nframe=  149 fps=0.7 q=28.5 size=    1280KiB time=00:00:02.94 bitrate=3566.7kbits/s speed=0.0135x elapsed=0:03:38.25    \nframe=  149 fps=0.7 q=28.5 size=    1280KiB time=00:00:02.94 bitrate=3566.7kbits/s speed=0.0134x elapsed=0:03:38.78    \nframe=  150 fps=0.7 q=34.1 size=    1280KiB time=00:00:02.96 bitrate=3542.6kbits/s speed=0.0135x elapsed=0:03:39.43    \nframe=  150 fps=0.7 q=34.1 size=    1280KiB time=00:00:02.96 bitrate=3542.6kbits/s speed=0.0135x elapsed=0:03:40.01    \nframe=  150 fps=0.7 q=34.1 size=    1280KiB time=00:00:02.96 bitrate=3542.6kbits/s speed=0.0134x elapsed=0:03:40.55    \nframe=  151 fps=0.7 q=35.0 size=    1280KiB time=00:00:02.98 bitrate=3518.8kbits/s speed=0.0135x elapsed=0:03:41.08    \nframe=  151 fps=0.7 q=35.0 size=    1280KiB time=00:00:02.98 bitrate=3518.8kbits/s speed=0.0134x elapsed=0:03:41.60    \nframe=  151 fps=0.7 q=35.0 size=    1280KiB time=00:00:02.98 bitrate=3518.8kbits/s speed=0.0134x elapsed=0:03:42.10    \nframe=  151 fps=0.7 q=35.0 size=    1280KiB time=00:00:02.98 bitrate=3518.8kbits/s speed=0.0134x elapsed=0:03:42.67    \nframe=  151 fps=0.7 q=35.0 size=    1280KiB time=00:00:02.98 bitrate=3518.8kbits/s speed=0.0134x elapsed=0:03:43.21    \nframe=  152 fps=0.7 q=36.0 size=    1280KiB time=00:00:03.00 bitrate=3495.4kbits/s speed=0.0134x elapsed=0:03:43.78    \nframe=  152 fps=0.7 q=36.0 size=    1280KiB time=00:00:03.00 bitrate=3495.4kbits/s speed=0.0134x elapsed=0:03:44.32    \nframe=  153 fps=0.7 q=36.0 size=    1280KiB time=00:00:03.02 bitrate=3472.2kbits/s speed=0.0134x elapsed=0:03:44.87    \nframe=  153 fps=0.7 q=36.0 size=    1280KiB time=00:00:03.02 bitrate=3472.2kbits/s speed=0.0134x elapsed=0:03:45.40    \nframe=  154 fps=0.7 q=28.9 size=    1280KiB time=00:00:03.04 bitrate=3449.4kbits/s speed=0.0135x elapsed=0:03:45.94    \nframe=  154 fps=0.7 q=28.9 size=    1280KiB time=00:00:03.04 bitrate=3449.4kbits/s speed=0.0134x elapsed=0:03:46.50    \nframe=  154 fps=0.7 q=28.9 size=    1280KiB time=00:00:03.04 bitrate=3449.4kbits/s speed=0.0134x elapsed=0:03:47.05    \nframe=  154 fps=0.7 q=28.9 size=    1280KiB time=00:00:03.04 bitrate=3449.4kbits/s speed=0.0134x elapsed=0:03:47.58    \nframe=  155 fps=0.7 q=29.3 size=    1280KiB time=00:00:03.06 bitrate=3426.8kbits/s speed=0.0134x elapsed=0:03:48.11    \nframe=  155 fps=0.7 q=29.3 size=    1280KiB time=00:00:03.06 bitrate=3426.8kbits/s speed=0.0134x elapsed=0:03:48.66    \nframe=  156 fps=0.7 q=37.0 size=    1280KiB time=00:00:03.08 bitrate=3404.6kbits/s speed=0.0134x elapsed=0:03:49.24    \nframe=  156 fps=0.7 q=37.0 size=    1280KiB time=00:00:03.08 bitrate=3404.6kbits/s speed=0.0134x elapsed=0:03:49.81    \nframe=  156 fps=0.7 q=37.0 size=    1280KiB time=00:00:03.08 bitrate=3404.6kbits/s speed=0.0134x elapsed=0:03:50.40    \nframe=  157 fps=0.7 q=36.8 size=    1280KiB time=00:00:03.10 bitrate=3382.6kbits/s speed=0.0134x elapsed=0:03:50.96    \nframe=  158 fps=0.7 q=37.0 size=    1280KiB time=00:00:03.12 bitrate=3360.9kbits/s speed=0.0135x elapsed=0:03:51.52    \nframe=  158 fps=0.7 q=37.0 size=    1280KiB time=00:00:03.12 bitrate=3360.9kbits/s speed=0.0134x elapsed=0:03:52.03    \nframe=  159 fps=0.7 q=29.4 size=    1280KiB time=00:00:03.14 bitrate=3339.5kbits/s speed=0.0135x elapsed=0:03:52.55    \nframe=  160 fps=0.7 q=35.4 size=    1280KiB time=00:00:03.16 bitrate=3318.4kbits/s speed=0.0136x elapsed=0:03:53.07    \nframe=  160 fps=0.7 q=35.4 size=    1280KiB time=00:00:03.16 bitrate=3318.4kbits/s speed=0.0135x elapsed=0:03:53.61    \nframe=  161 fps=0.7 q=37.0 size=    1280KiB time=00:00:03.18 bitrate=3297.5kbits/s speed=0.0136x elapsed=0:03:54.17    \nframe=  161 fps=0.7 q=37.0 size=    1280KiB time=00:00:03.18 bitrate=3297.5kbits/s speed=0.0135x elapsed=0:03:54.70    \nframe=  162 fps=0.7 q=35.8 size=    1280KiB time=00:00:03.20 bitrate=3276.9kbits/s speed=0.0136x elapsed=0:03:55.26    \nframe=  162 fps=0.7 q=35.8 size=    1280KiB time=00:00:03.20 bitrate=3276.9kbits/s speed=0.0136x elapsed=0:03:55.80    \nframe=  162 fps=0.7 q=35.8 size=    1280KiB time=00:00:03.20 bitrate=3276.9kbits/s speed=0.0135x elapsed=0:03:56.32    \nframe=  163 fps=0.7 q=35.0 size=    1280KiB time=00:00:03.22 bitrate=3256.6kbits/s speed=0.0136x elapsed=0:03:56.83    \nframe=  163 fps=0.7 q=35.0 size=    1280KiB time=00:00:03.22 bitrate=3256.6kbits/s speed=0.0136x elapsed=0:03:57.42    \nframe=  164 fps=0.7 q=28.6 size=    1280KiB time=00:00:03.24 bitrate=3236.5kbits/s speed=0.0136x elapsed=0:03:57.97    \nframe=  165 fps=0.7 q=34.6 size=    1280KiB time=00:00:03.26 bitrate=3216.6kbits/s speed=0.0137x elapsed=0:03:58.57    \nframe=  165 fps=0.7 q=34.6 size=    1280KiB time=00:00:03.26 bitrate=3216.6kbits/s speed=0.0136x elapsed=0:03:59.21    \nframe=  165 fps=0.7 q=34.6 size=    1280KiB time=00:00:03.26 bitrate=3216.6kbits/s speed=0.0136x elapsed=0:03:59.80    \nframe=  165 fps=0.7 q=34.6 size=    1280KiB time=00:00:03.26 bitrate=3216.6kbits/s speed=0.0136x elapsed=0:04:00.36    \nframe=  165 fps=0.7 q=34.6 size=    1280KiB time=00:00:03.26 bitrate=3216.6kbits/s speed=0.0135x elapsed=0:04:00.98    \nframe=  166 fps=0.7 q=35.0 size=    1280KiB time=00:00:03.28 bitrate=3197.0kbits/s speed=0.0136x elapsed=0:04:01.57    \nframe=  166 fps=0.7 q=35.0 size=    1280KiB time=00:00:03.28 bitrate=3197.0kbits/s speed=0.0135x elapsed=0:04:02.09    \nframe=  167 fps=0.7 q=35.0 size=    1280KiB time=00:00:03.30 bitrate=3177.6kbits/s speed=0.0136x elapsed=0:04:02.70    \nframe=  167 fps=0.7 q=35.0 size=    1280KiB time=00:00:03.30 bitrate=3177.6kbits/s speed=0.0136x elapsed=0:04:03.31    \nframe=  167 fps=0.7 q=35.0 size=    1280KiB time=00:00:03.30 bitrate=3177.6kbits/s speed=0.0135x elapsed=0:04:03.87    \nframe=  167 fps=0.7 q=35.0 size=    1280KiB time=00:00:03.30 bitrate=3177.6kbits/s speed=0.0135x elapsed=0:04:04.40    \nframe=  167 fps=0.7 q=35.0 size=    1280KiB time=00:00:03.30 bitrate=3177.6kbits/s speed=0.0135x elapsed=0:04:04.92    \nframe=  168 fps=0.7 q=28.4 size=    1280KiB time=00:00:03.32 bitrate=3158.5kbits/s speed=0.0135x elapsed=0:04:05.44    \nframe=  168 fps=0.7 q=28.4 size=    1280KiB time=00:00:03.32 bitrate=3158.5kbits/s speed=0.0135x elapsed=0:04:05.98    \nframe=  169 fps=0.7 q=32.5 size=    1536KiB time=00:00:03.34 bitrate=3767.4kbits/s speed=0.0135x elapsed=0:04:06.50    \nframe=  170 fps=0.7 q=35.0 size=    1536KiB time=00:00:03.36 bitrate=3745.0kbits/s speed=0.0136x elapsed=0:04:07.02    \nframe=  171 fps=0.7 q=34.9 size=    1536KiB time=00:00:03.38 bitrate=3722.9kbits/s speed=0.0137x elapsed=0:04:07.54    \nframe=  172 fps=0.7 q=34.0 size=    1536KiB time=00:00:03.40 bitrate=3701.0kbits/s speed=0.0137x elapsed=0:04:08.05    \nframe=  173 fps=0.7 q=28.5 size=    1536KiB time=00:00:03.42 bitrate=3679.3kbits/s speed=0.0138x elapsed=0:04:08.57    \nframe=  174 fps=0.7 q=34.0 size=    1536KiB time=00:00:03.44 bitrate=3657.9kbits/s speed=0.0138x elapsed=0:04:09.07    \nframe=  175 fps=0.7 q=35.0 size=    1536KiB time=00:00:03.46 bitrate=3636.8kbits/s speed=0.0139x elapsed=0:04:09.60    \nframe=  175 fps=0.7 q=35.0 size=    1536KiB time=00:00:03.46 bitrate=3636.8kbits/s speed=0.0138x elapsed=0:04:10.12    \nframe=  177 fps=0.7 q=28.5 size=    1536KiB time=00:00:03.50 bitrate=3595.2kbits/s speed=0.014x elapsed=0:04:10.64    \nframe=  179 fps=0.7 q=34.9 size=    1536KiB time=00:00:03.54 bitrate=3554.6kbits/s speed=0.0141x elapsed=0:04:11.16    \nframe=  179 fps=0.7 q=34.9 size=    1536KiB time=00:00:03.54 bitrate=3554.6kbits/s speed=0.0141x elapsed=0:04:11.68    \nframe=  180 fps=0.7 q=34.9 size=    1536KiB time=00:00:03.56 bitrate=3534.6kbits/s speed=0.0141x elapsed=0:04:12.20    \nframe=  181 fps=0.7 q=34.6 size=    1536KiB time=00:00:03.58 bitrate=3514.9kbits/s speed=0.0142x elapsed=0:04:12.74    \nframe=  182 fps=0.7 q=28.9 size=    1536KiB time=00:00:03.60 bitrate=3495.4kbits/s speed=0.0142x elapsed=0:04:13.25    \nframe=  183 fps=0.7 q=34.3 size=    1536KiB time=00:00:03.62 bitrate=3476.0kbits/s speed=0.0143x elapsed=0:04:13.77    \nframe=  184 fps=0.7 q=36.0 size=    1536KiB time=00:00:03.64 bitrate=3456.9kbits/s speed=0.0143x elapsed=0:04:14.29    \nframe=  185 fps=0.7 q=36.0 size=    1536KiB time=00:00:03.66 bitrate=3438.1kbits/s speed=0.0144x elapsed=0:04:14.81    \nframe=  187 fps=0.7 q=34.4 size=    1536KiB time=00:00:03.70 bitrate=3400.9kbits/s speed=0.0145x elapsed=0:04:15.33    \nframe=  188 fps=0.7 q=35.9 size=    1536KiB time=00:00:03.72 bitrate=3382.6kbits/s speed=0.0145x elapsed=0:04:15.84    \nframe=  190 fps=0.7 q=37.0 size=    1536KiB time=00:00:03.76 bitrate=3346.6kbits/s speed=0.0147x elapsed=0:04:16.36    \nframe=  191 fps=0.7 q=29.1 size=    1536KiB time=00:00:03.78 bitrate=3328.9kbits/s speed=0.0147x elapsed=0:04:16.87    \nframe=  194 fps=0.8 q=36.9 size=    1536KiB time=00:00:03.84 bitrate=3276.9kbits/s speed=0.0149x elapsed=0:04:17.40    \nframe=  194 fps=0.8 q=36.9 size=    1536KiB time=00:00:03.84 bitrate=3276.9kbits/s speed=0.0149x elapsed=0:04:17.91    \nframe=  194 fps=0.8 q=36.9 size=    1536KiB time=00:00:03.84 bitrate=3276.9kbits/s speed=0.0149x elapsed=0:04:18.42    \nframe=  195 fps=0.8 q=36.0 size=    1536KiB time=00:00:03.86 bitrate=3259.9kbits/s speed=0.0149x elapsed=0:04:18.95    \nframe=  196 fps=0.8 q=29.1 size=    1536KiB time=00:00:03.88 bitrate=3243.1kbits/s speed=0.015x elapsed=0:04:19.47    \nframe=  197 fps=0.8 q=35.1 size=    1792KiB time=00:00:03.90 bitrate=3764.2kbits/s speed=0.015x elapsed=0:04:19.99    \nframe=  198 fps=0.8 q=36.9 size=    1792KiB time=00:00:03.92 bitrate=3745.0kbits/s speed=0.015x elapsed=0:04:20.52    \nframe=  200 fps=0.8 q=37.0 size=    1792KiB time=00:00:03.96 bitrate=3707.2kbits/s speed=0.0152x elapsed=0:04:21.04    \nframe=  200 fps=0.8 q=37.0 size=    1792KiB time=00:00:03.96 bitrate=3707.2kbits/s speed=0.0151x elapsed=0:04:21.56    \nframe=  200 fps=0.8 q=37.0 size=    1792KiB time=00:00:03.96 bitrate=3707.2kbits/s speed=0.0151x elapsed=0:04:22.09    \nframe=  200 fps=0.8 q=37.0 size=    1792KiB time=00:00:03.96 bitrate=3707.2kbits/s speed=0.0151x elapsed=0:04:22.62    \nframe=  200 fps=0.8 q=37.0 size=    1792KiB time=00:00:03.96 bitrate=3707.2kbits/s speed=0.015x elapsed=0:04:23.14    \nframe=  201 fps=0.8 q=29.7 size=    1792KiB time=00:00:03.98 bitrate=3688.5kbits/s speed=0.0151x elapsed=0:04:23.68    \nframe=  202 fps=0.8 q=36.8 size=    1792KiB time=00:00:04.00 bitrate=3670.1kbits/s speed=0.0151x elapsed=0:04:24.19    \nframe=  203 fps=0.8 q=37.0 size=    1792KiB time=00:00:04.02 bitrate=3651.8kbits/s speed=0.0152x elapsed=0:04:24.73    \nframe=  204 fps=0.8 q=37.9 size=    1792KiB time=00:00:04.04 bitrate=3633.8kbits/s speed=0.0152x elapsed=0:04:25.25    \nframe=  205 fps=0.8 q=30.2 size=    1792KiB time=00:00:04.06 bitrate=3615.9kbits/s speed=0.0153x elapsed=0:04:25.77    \nframe=  205 fps=0.8 q=30.2 size=    1792KiB time=00:00:04.06 bitrate=3615.9kbits/s speed=0.0152x elapsed=0:04:26.31    \nframe=  207 fps=0.8 q=38.0 size=    1792KiB time=00:00:04.10 bitrate=3580.6kbits/s speed=0.0154x elapsed=0:04:26.87    \nframe=  208 fps=0.8 q=38.9 size=    1792KiB time=00:00:04.12 bitrate=3563.2kbits/s speed=0.0154x elapsed=0:04:27.39    \nframe=  209 fps=0.8 q=39.0 size=    1792KiB time=00:00:04.14 bitrate=3546.0kbits/s speed=0.0155x elapsed=0:04:27.92    \nframe=  209 fps=0.8 q=39.0 size=    1792KiB time=00:00:04.14 bitrate=3546.0kbits/s speed=0.0154x elapsed=0:04:28.45    \nframe=  210 fps=0.8 q=31.0 size=    1792KiB time=00:00:04.16 bitrate=3528.9kbits/s speed=0.0155x elapsed=0:04:28.97    \nframe=  211 fps=0.8 q=38.9 size=    2048KiB time=00:00:04.18 bitrate=4013.8kbits/s speed=0.0155x elapsed=0:04:29.49    \nframe=  212 fps=0.8 q=39.0 size=    2048KiB time=00:00:04.20 bitrate=3994.7kbits/s speed=0.0156x elapsed=0:04:30.01    \nframe=  213 fps=0.8 q=40.0 size=    2048KiB time=00:00:04.22 bitrate=3975.7kbits/s speed=0.0156x elapsed=0:04:30.54    \nframe=  214 fps=0.8 q=40.0 size=    2048KiB time=00:00:04.24 bitrate=3957.0kbits/s speed=0.0156x elapsed=0:04:31.06    \nframe=  214 fps=0.8 q=40.0 size=    2048KiB time=00:00:04.24 bitrate=3957.0kbits/s speed=0.0156x elapsed=0:04:31.60    \nframe=  214 fps=0.8 q=40.0 size=    2048KiB time=00:00:04.24 bitrate=3957.0kbits/s speed=0.0156x elapsed=0:04:32.10    \nframe=  216 fps=0.8 q=37.9 size=    2048KiB time=00:00:04.28 bitrate=3920.0kbits/s speed=0.0157x elapsed=0:04:32.62    \nframe=  217 fps=0.8 q=39.0 size=    2048KiB time=00:00:04.30 bitrate=3901.8kbits/s speed=0.0157x elapsed=0:04:33.16    \nframe=  218 fps=0.8 q=39.0 size=    2048KiB time=00:00:04.32 bitrate=3883.7kbits/s speed=0.0158x elapsed=0:04:33.70    \nframe=  219 fps=0.8 q=39.0 size=    2048KiB time=00:00:04.34 bitrate=3865.8kbits/s speed=0.0158x elapsed=0:04:34.20    \nframe=  219 fps=0.8 q=39.0 size=    2048KiB time=00:00:04.34 bitrate=3865.8kbits/s speed=0.0158x elapsed=0:04:34.72    \nframe=  220 fps=0.8 q=30.1 size=    2048KiB time=00:00:04.36 bitrate=3848.1kbits/s speed=0.0158x elapsed=0:04:35.25    \nframe=  221 fps=0.8 q=36.9 size=    2048KiB time=00:00:04.38 bitrate=3830.5kbits/s speed=0.0159x elapsed=0:04:35.77    \nframe=  222 fps=0.8 q=38.0 size=    2048KiB time=00:00:04.40 bitrate=3813.1kbits/s speed=0.0159x elapsed=0:04:36.30    \nframe=  223 fps=0.8 q=38.0 size=    2048KiB time=00:00:04.42 bitrate=3795.8kbits/s speed=0.016x elapsed=0:04:36.84    \nframe=  223 fps=0.8 q=38.0 size=    2048KiB time=00:00:04.42 bitrate=3795.8kbits/s speed=0.0159x elapsed=0:04:37.44    \nframe=  223 fps=0.8 q=38.0 size=    2048KiB time=00:00:04.42 bitrate=3795.8kbits/s speed=0.0159x elapsed=0:04:38.07    \nframe=  223 fps=0.8 q=38.0 size=    2048KiB time=00:00:04.42 bitrate=3795.8kbits/s speed=0.0159x elapsed=0:04:38.62    \nframe=  224 fps=0.8 q=29.6 size=    2048KiB time=00:00:04.44 bitrate=3778.7kbits/s speed=0.0159x elapsed=0:04:39.18    \nframe=  224 fps=0.8 q=29.6 size=    2048KiB time=00:00:04.44 bitrate=3778.7kbits/s speed=0.0159x elapsed=0:04:39.74    \nframe=  225 fps=0.8 q=36.3 size=    2048KiB time=00:00:04.46 bitrate=3761.8kbits/s speed=0.0159x elapsed=0:04:40.28    \nframe=  226 fps=0.8 q=37.9 size=    2048KiB time=00:00:04.48 bitrate=3745.0kbits/s speed=0.016x elapsed=0:04:40.84    \nframe=  226 fps=0.8 q=37.9 size=    2048KiB time=00:00:04.48 bitrate=3745.0kbits/s speed=0.0159x elapsed=0:04:41.42    \nframe=  226 fps=0.8 q=37.9 size=    2048KiB time=00:00:04.48 bitrate=3745.0kbits/s speed=0.0159x elapsed=0:04:41.96    \nframe=  226 fps=0.8 q=37.9 size=    2048KiB time=00:00:04.48 bitrate=3745.0kbits/s speed=0.0159x elapsed=0:04:42.50    \nframe=  226 fps=0.8 q=37.9 size=    2048KiB time=00:00:04.48 bitrate=3745.0kbits/s speed=0.0158x elapsed=0:04:43.01    \nframe=  228 fps=0.8 q=29.4 size=    2048KiB time=00:00:04.52 bitrate=3711.9kbits/s speed=0.0159x elapsed=0:04:43.53    \nframe=  229 fps=0.8 q=35.7 size=    2048KiB time=00:00:04.54 bitrate=3695.5kbits/s speed=0.016x elapsed=0:04:44.08    \nframe=  230 fps=0.8 q=37.0 size=    2048KiB time=00:00:04.56 bitrate=3679.3kbits/s speed=0.016x elapsed=0:04:44.60    \nframe=  230 fps=0.8 q=37.0 size=    2048KiB time=00:00:04.56 bitrate=3679.3kbits/s speed=0.016x elapsed=0:04:45.14    \nframe=  231 fps=0.8 q=37.0 size=    2048KiB time=00:00:04.58 bitrate=3663.2kbits/s speed=0.016x elapsed=0:04:45.65    \nframe=  231 fps=0.8 q=37.0 size=    2048KiB time=00:00:04.58 bitrate=3663.2kbits/s speed=0.016x elapsed=0:04:46.18    \nframe=  231 fps=0.8 q=37.0 size=    2048KiB time=00:00:04.58 bitrate=3663.2kbits/s speed=0.016x elapsed=0:04:46.75    \nframe=  231 fps=0.8 q=37.0 size=    2048KiB time=00:00:04.58 bitrate=3663.2kbits/s speed=0.0159x elapsed=0:04:47.31    \nframe=  233 fps=0.8 q=34.8 size=    2048KiB time=00:00:04.62 bitrate=3631.5kbits/s speed=0.016x elapsed=0:04:47.85    \nframe=  233 fps=0.8 q=34.8 size=    2048KiB time=00:00:04.62 bitrate=3631.5kbits/s speed=0.016x elapsed=0:04:48.42    \nframe=  233 fps=0.8 q=34.8 size=    2048KiB time=00:00:04.62 bitrate=3631.5kbits/s speed=0.016x elapsed=0:04:48.97    \nframe=  233 fps=0.8 q=34.8 size=    2048KiB time=00:00:04.62 bitrate=3631.5kbits/s speed=0.016x elapsed=0:04:49.57    \nframe=  234 fps=0.8 q=36.1 size=    2048KiB time=00:00:04.64 bitrate=3615.9kbits/s speed=0.016x elapsed=0:04:50.14    \nframe=  234 fps=0.8 q=36.1 size=    2048KiB time=00:00:04.64 bitrate=3615.9kbits/s speed=0.016x elapsed=0:04:50.73    \nframe=  234 fps=0.8 q=36.1 size=    2048KiB time=00:00:04.64 bitrate=3615.9kbits/s speed=0.0159x elapsed=0:04:51.30    \nframe=  234 fps=0.8 q=36.1 size=    2048KiB time=00:00:04.64 bitrate=3615.9kbits/s speed=0.0159x elapsed=0:04:51.87    \nframe=  234 fps=0.8 q=36.1 size=    2048KiB time=00:00:04.64 bitrate=3615.9kbits/s speed=0.0159x elapsed=0:04:52.50    \nframe=  235 fps=0.8 q=37.0 size=    2048KiB time=00:00:04.66 bitrate=3600.3kbits/s speed=0.0159x elapsed=0:04:53.02    \nframe=  236 fps=0.8 q=37.0 size=    2048KiB time=00:00:04.68 bitrate=3585.0kbits/s speed=0.0159x elapsed=0:04:53.55    \nframe=  236 fps=0.8 q=37.0 size=    2048KiB time=00:00:04.68 bitrate=3585.0kbits/s speed=0.0159x elapsed=0:04:54.07    \nframe=  237 fps=0.8 q=29.9 size=    2048KiB time=00:00:04.70 bitrate=3569.7kbits/s speed=0.016x elapsed=0:04:54.61    \nframe=  238 fps=0.8 q=35.4 size=    2048KiB time=00:00:04.72 bitrate=3554.6kbits/s speed=0.016x elapsed=0:04:55.16    \nframe=  239 fps=0.8 q=37.1 size=    2048KiB time=00:00:04.74 bitrate=3539.6kbits/s speed=0.016x elapsed=0:04:55.70    \nframe=  239 fps=0.8 q=37.1 size=    2048KiB time=00:00:04.74 bitrate=3539.6kbits/s speed=0.016x elapsed=0:04:56.22    \nframe=  240 fps=0.8 q=36.1 size=    2048KiB time=00:00:04.76 bitrate=3524.7kbits/s speed=0.016x elapsed=0:04:56.76    \nframe=  241 fps=0.8 q=29.9 size=    2048KiB time=00:00:04.78 bitrate=3510.0kbits/s speed=0.0161x elapsed=0:04:57.30    \nframe=  242 fps=0.8 q=35.1 size=    2304KiB time=00:00:04.80 bitrate=3932.2kbits/s speed=0.0161x elapsed=0:04:57.83    \nframe=  243 fps=0.8 q=35.1 size=    2304KiB time=00:00:04.82 bitrate=3915.9kbits/s speed=0.0162x elapsed=0:04:58.36    \nframe=  244 fps=0.8 q=34.0 size=    2304KiB time=00:00:04.84 bitrate=3899.7kbits/s speed=0.0162x elapsed=0:04:58.89    \nframe=  245 fps=0.8 q=33.8 size=    2304KiB time=00:00:04.86 bitrate=3883.7kbits/s speed=0.0162x elapsed=0:04:59.40    \nframe=  245 fps=0.8 q=33.8 size=    2304KiB time=00:00:04.86 bitrate=3883.7kbits/s speed=0.0162x elapsed=0:04:59.94    \nframe=  246 fps=0.8 q=30.0 size=    2304KiB time=00:00:04.88 bitrate=3867.8kbits/s speed=0.0162x elapsed=0:05:00.49    \nframe=  247 fps=0.8 q=30.6 size=    2304KiB time=00:00:04.88 bitrate=3867.8kbits/s speed=0.0162x elapsed=0:05:01.01    \nframe=  247 fps=0.8 q=30.6 size=    2304KiB time=00:00:04.90 bitrate=3852.0kbits/s speed=0.0162x elapsed=0:05:01.54    \n[mp4 @ 000001ff5311aa40] Starting second pass: moving the moov atom to the beginning of the file\n[out#0/mp4 @ 000001ff531a7d80] video:2399KiB audio:0KiB subtitle:0KiB other streams:0KiB global headers:2KiB muxing overhead: 0.258093%\nframe=  250 fps=0.8 q=33.1 Lsize=    2405KiB time=00:00:04.96 bitrate=3972.3kbits/s speed=0.0164x elapsed=0:05:01.85    \nx265 [info]: frame I:      1, Avg QP:35.07  kb/s: 49096.40\nx265 [info]: frame P:     53, Avg QP:30.29  kb/s: 16037.68\nx265 [info]: frame B:    196, Avg QP:36.96  kb/s: 423.97  \nx265 [info]: Weighted P-Frames: Y:0.0% UV:0.0%\n\nencoded 250 frames in 301.42s (0.83 fps), 3928.77 kb/s, Avg QP:35.54\n",
  "seconds": 302.35086369514465,
  "probe_out": {}
}